<svg width="96" height="96" viewBox="0 0 96 96" fill="none" xmlns="http://www.w3.org/2000/svg">
    <g filter="url(#filter0_d_169_560)">
        <rect x="24" y="24" width="48" height="48" rx="16" fill="#D46C67"/>
    </g>
    <path d="M49.41 37.8355L58.7819 54.4936C58.9248 54.7476 59 55.0357 59 55.3291C59 55.6224 58.9248 55.9105 58.7819 56.1645C58.639 56.4185 58.4334 56.6295 58.1859 56.7761C57.9384 56.9228 57.6577 57 57.3719 57H38.6281C38.3423 57 38.0616 56.9228 37.8141 56.7761C37.5666 56.6295 37.361 56.4185 37.2181 56.1645C37.0752 55.9105 37 55.6224 37 55.3291C37 55.0357 37.0752 54.7476 37.2181 54.4936L46.59 37.8355C47.2163 36.7215 48.7826 36.7215 49.41 37.8355ZM48 51.0381C47.7121 51.0381 47.436 51.1555 47.2325 51.3644C47.0289 51.5733 46.9145 51.8566 46.9145 52.1521C46.9145 52.4475 47.0289 52.7308 47.2325 52.9397C47.436 53.1487 47.7121 53.266 48 53.266C48.2879 53.266 48.564 53.1487 48.7675 52.9397C48.9711 52.7308 49.0855 52.4475 49.0855 52.1521C49.0855 51.8566 48.9711 51.5733 48.7675 51.3644C48.564 51.1555 48.2879 51.0381 48 51.0381ZM48 43.2404C47.7341 43.2404 47.4775 43.3406 47.2789 43.5219C47.0802 43.7032 46.9532 43.953 46.9221 44.224L46.9145 44.3544V48.8102C46.9148 49.0941 47.0208 49.3672 47.2107 49.5737C47.4006 49.7801 47.6602 49.9044 47.9364 49.921C48.2126 49.9376 48.4845 49.8454 48.6967 49.6632C48.9088 49.4809 49.0452 49.2225 49.0779 48.9405L49.0855 48.8102V44.3544C49.0855 44.0589 48.9711 43.7756 48.7675 43.5667C48.564 43.3578 48.2879 43.2404 48 43.2404Z" fill="white"/>
    <defs>
        <filter id="filter0_d_169_560" x="0" y="0" width="96" height="96" filterUnits="userSpaceOnUse" color-interpolation-filters="sRGB">
            <feFlood flood-opacity="0" result="BackgroundImageFix"/>
            <feColorMatrix in="SourceAlpha" type="matrix" values="0 0 0 0 0 0 0 0 0 0 0 0 0 0 0 0 0 0 127 0" result="hardAlpha"/>
            <feOffset/>
            <feGaussianBlur stdDeviation="12"/>
            <feComposite in2="hardAlpha" operator="out"/>
            <feColorMatrix type="matrix" values="0 0 0 0 0.831373 0 0 0 0 0.423529 0 0 0 0 0.403922 0 0 0 0.64 0"/>
            <feBlend mode="normal" in2="BackgroundImageFix" result="effect1_dropShadow_169_560"/>
            <feBlend mode="normal" in="SourceGraphic" in2="effect1_dropShadow_169_560" result="shape"/>
        </filter>
    </defs>
</svg>
