<svg width="50" height="50" viewBox="0 0 50 50" fill="none" xmlns="http://www.w3.org/2000/svg">
    <rect width="50" height="50" rx="16" fill="#222222"/>
    <path d="M26.0656 18C27.3923 18 27.8734 18.1381 28.3584 18.3975C28.8434 18.6569 29.224 19.0375 29.4834 19.5226C29.7428 20.0076 29.881 20.4886 29.881 21.8153V28.0736C29.881 29.4002 29.7428 29.8813 29.4834 30.3663C29.224 30.8513 28.8434 31.232 28.3584 31.4914C27.8734 31.7508 27.3923 31.8889 26.0656 31.8889H18.8153C17.4886 31.8889 17.0076 31.7508 16.5226 31.4914C16.0375 31.232 15.6569 30.8513 15.3975 30.3663C15.1381 29.8813 15 29.4002 15 28.0736V21.8153C15 20.4886 15.1381 20.0076 15.3975 19.5226C15.6569 19.0375 16.0375 18.6569 16.5226 18.3975C17.0076 18.1381 17.4886 18 18.8153 18H26.0656ZM35.6345 20.8739C35.7636 21.0457 35.8333 21.2548 35.8333 21.4697V28.4192C35.8333 28.9671 35.3892 29.4113 34.8413 29.4113C34.6264 29.4113 34.4173 29.3415 34.2455 29.2125L32.0632 27.5734C31.9385 27.4797 31.8651 27.3328 31.8651 27.1768V22.7121C31.8651 22.5561 31.9385 22.4092 32.0632 22.3155L34.2455 20.6764C34.6836 20.3474 35.3055 20.4358 35.6345 20.8739Z" fill="white"/>
</svg>
