<svg width="96" height="96" viewBox="0 0 96 96" fill="none" xmlns="http://www.w3.org/2000/svg">
    <g filter="url(#filter0_d_169_607)">
        <rect x="24" y="24" width="48" height="48" rx="16" fill="#FFC400"/>
    </g>
    <path d="M49.41 38.8355L58.7819 55.4936C58.9248 55.7476 59 56.0357 59 56.3291C59 56.6224 58.9248 56.9105 58.7819 57.1645C58.639 57.4185 58.4334 57.6295 58.1859 57.7761C57.9384 57.9228 57.6577 58 57.3719 58H38.6281C38.3423 58 38.0616 57.9228 37.8141 57.7761C37.5666 57.6295 37.361 57.4185 37.2181 57.1645C37.0752 56.9105 37 56.6224 37 56.3291C37 56.0357 37.0752 55.7476 37.2181 55.4936L46.59 38.8355C47.2163 37.7215 48.7826 37.7215 49.41 38.8355ZM48 52.0381C47.7121 52.0381 47.436 52.1555 47.2325 52.3644C47.0289 52.5733 46.9145 52.8566 46.9145 53.1521C46.9145 53.4475 47.0289 53.7308 47.2325 53.9397C47.436 54.1487 47.7121 54.266 48 54.266C48.2879 54.266 48.564 54.1487 48.7675 53.9397C48.9711 53.7308 49.0855 53.4475 49.0855 53.1521C49.0855 52.8566 48.9711 52.5733 48.7675 52.3644C48.564 52.1555 48.2879 52.0381 48 52.0381ZM48 44.2404C47.7341 44.2404 47.4775 44.3406 47.2789 44.5219C47.0802 44.7032 46.9532 44.953 46.9221 45.224L46.9145 45.3544V49.8102C46.9148 50.0941 47.0208 50.3672 47.2107 50.5737C47.4006 50.7801 47.6602 50.9044 47.9364 50.921C48.2126 50.9376 48.4845 50.8454 48.6967 50.6632C48.9088 50.4809 49.0452 50.2225 49.0779 49.9405L49.0855 49.8102V45.3544C49.0855 45.0589 48.9711 44.7756 48.7675 44.5667C48.564 44.3578 48.2879 44.2404 48 44.2404Z" fill="white"/>
    <defs>
        <filter id="filter0_d_169_607" x="0" y="0" width="96" height="96" filterUnits="userSpaceOnUse" color-interpolation-filters="sRGB">
            <feFlood flood-opacity="0" result="BackgroundImageFix"/>
            <feColorMatrix in="SourceAlpha" type="matrix" values="0 0 0 0 0 0 0 0 0 0 0 0 0 0 0 0 0 0 127 0" result="hardAlpha"/>
            <feOffset/>
            <feGaussianBlur stdDeviation="12"/>
            <feComposite in2="hardAlpha" operator="out"/>
            <feColorMatrix type="matrix" values="0 0 0 0 1 0 0 0 0 0.768627 0 0 0 0 0 0 0 0 0.64 0"/>
            <feBlend mode="normal" in2="BackgroundImageFix" result="effect1_dropShadow_169_607"/>
            <feBlend mode="normal" in="SourceGraphic" in2="effect1_dropShadow_169_607" result="shape"/>
        </filter>
    </defs>
</svg>
