<svg width="50" height="50" viewBox="0 0 50 50" fill="none" xmlns="http://www.w3.org/2000/svg">
    <path d="M33.3333 0H16.6667C7.46192 0 0 7.46192 0 16.6667V33.3333C0 42.5381 7.46192 50 16.6667 50H33.3333C42.5381 50 50 42.5381 50 33.3333V16.6667C50 7.46192 42.5381 0 33.3333 0Z" fill="#FFC400"/>
    <path d="M26.4686 15.4537L36.231 32.8058C36.3798 33.0704 36.4582 33.3705 36.4582 33.6762C36.4582 33.9817 36.3798 34.2818 36.231 34.5464C36.0821 34.811 35.868 35.0307 35.6102 35.1835C35.3523 35.3363 35.0599 35.4167 34.7622 35.4167H15.2374C14.9397 35.4167 14.6473 35.3363 14.3895 35.1835C14.1317 35.0307 13.9175 34.811 13.7687 34.5464C13.6198 34.2818 13.5415 33.9817 13.5415 33.6762C13.5415 33.3705 13.6198 33.0704 13.7687 32.8058L23.5311 15.4537C24.1835 14.2932 25.815 14.2932 26.4686 15.4537ZM24.9998 29.2064C24.6999 29.2064 24.4123 29.3287 24.2004 29.5463C23.9883 29.7639 23.8691 30.059 23.8691 30.3668C23.8691 30.6745 23.9883 30.9696 24.2004 31.1872C24.4123 31.4049 24.6999 31.5271 24.9998 31.5271C25.2997 31.5271 25.5873 31.4049 25.7993 31.1872C26.0114 30.9696 26.1306 30.6745 26.1306 30.3668C26.1306 30.059 26.0114 29.7639 25.7993 29.5463C25.5873 29.3287 25.2997 29.2064 24.9998 29.2064ZM24.9998 21.0838C24.7229 21.0838 24.4556 21.1881 24.2487 21.377C24.0417 21.5658 23.9094 21.8261 23.877 22.1083L23.8691 22.2442V26.8856C23.8694 27.1814 23.9798 27.4658 24.1777 27.6809C24.3755 27.8959 24.6459 28.0254 24.9336 28.0427C25.2213 28.06 25.5045 27.964 25.7256 27.7742C25.9465 27.5843 26.0886 27.3151 26.1226 27.0214L26.1306 26.8856V22.2442C26.1306 21.9364 26.0114 21.6413 25.7993 21.4237C25.5873 21.2061 25.2997 21.0838 24.9998 21.0838Z" fill="white"/>
</svg>
