<svg viewBox="0 0 50 50" fill="none" xmlns="http://www.w3.org/2000/svg">
    <rect width="50" height="50" rx="14" fill="#D46C67"/>
    <path d="M26.4686 14.412L36.2309 31.7642C36.3798 32.0288 36.4582 32.3289 36.4582 32.6344C36.4582 32.94 36.3798 33.2401 36.231 33.5047C36.0821 33.7693 35.868 33.989 35.6102 34.1418C35.3524 34.2946 35.0599 34.375 34.7622 34.375H15.2375C14.9398 34.375 14.6473 34.2946 14.3895 34.1418C14.1317 33.989 13.9176 33.7693 13.7687 33.5047C13.6199 33.2401 13.5415 32.94 13.5415 32.6344C13.5415 32.3289 13.6199 32.0288 13.7687 31.7642L23.5311 14.412C24.1835 13.2516 25.8151 13.2516 26.4686 14.412ZM24.9998 28.1647C24.7 28.1647 24.4124 28.2869 24.2003 28.5046C23.9883 28.7222 23.8692 29.0173 23.8692 29.3251C23.8692 29.6328 23.9883 29.928 24.2003 30.1456C24.4124 30.3632 24.7 30.4854 24.9998 30.4854C25.2997 30.4854 25.5873 30.3632 25.7994 30.1456C26.0114 29.928 26.1305 29.6328 26.1305 29.3251C26.1305 29.0173 26.0114 28.7222 25.7994 28.5046C25.5873 28.2869 25.2997 28.1647 24.9998 28.1647ZM24.9998 20.0421C24.7229 20.0421 24.4556 20.1465 24.2486 20.3353C24.0417 20.5242 23.9095 20.7844 23.8771 21.0667L23.8692 21.2025V25.8439C23.8695 26.1397 23.9798 26.4242 24.1777 26.6392C24.3755 26.8543 24.6459 26.9837 24.9336 27.001C25.2213 27.0184 25.5046 26.9223 25.7255 26.7325C25.9465 26.5427 26.0886 26.2734 26.1226 25.9797L26.1305 25.8439V21.2025C26.1305 20.8947 26.0114 20.5996 25.7994 20.3819C25.5873 20.1643 25.2997 20.0421 24.9998 20.0421Z" fill="white"/>
</svg>
