<svg viewBox="0 0 25 22" fill="none" xmlns="http://www.w3.org/2000/svg">
    <path d="M14.1023 0.919015L24.7521 19.243C24.9145 19.5224 25 19.8393 25 20.162C25 20.4846 24.9145 20.8016 24.7521 21.081C24.5897 21.3604 24.3562 21.5924 24.0749 21.7537C23.7937 21.9151 23.4746 22 23.1498 22H1.85017C1.52539 22 1.20634 21.9151 0.925076 21.7537C0.643815 21.5924 0.410254 21.3604 0.24787 21.081C0.0854852 20.8016 -2.06268e-06 20.4846 0 20.162C2.06275e-06 19.8393 0.0854934 19.5224 0.247882 19.243L10.8977 0.919015C11.6094 -0.306338 13.3893 -0.306338 14.1023 0.919015ZM12.5 15.4419C12.1729 15.4419 11.8591 15.571 11.6278 15.8008C11.3965 16.0306 11.2665 16.3423 11.2665 16.6673C11.2665 16.9922 11.3965 17.3039 11.6278 17.5337C11.8591 17.7635 12.1729 17.8926 12.5 17.8926C12.8271 17.8926 13.1409 17.7635 13.3722 17.5337C13.6035 17.3039 13.7335 16.9922 13.7335 16.6673C13.7335 16.3423 13.6035 16.0306 13.3722 15.8008C13.1409 15.571 12.8271 15.4419 12.5 15.4419ZM12.5 6.86443C12.1979 6.86447 11.9063 6.97466 11.6805 7.1741C11.4547 7.37354 11.3105 7.64835 11.2752 7.94642L11.2665 8.08979V12.9912C11.2669 13.3035 11.3873 13.6039 11.6031 13.831C11.8189 14.0581 12.1139 14.1948 12.4277 14.2131C12.7416 14.2314 13.0506 14.13 13.2917 13.9295C13.5328 13.729 13.6877 13.4447 13.7248 13.1346L13.7335 12.9912V8.08979C13.7335 7.7648 13.6035 7.45313 13.3722 7.22333C13.1409 6.99353 12.8271 6.86443 12.5 6.86443Z" fill="#212121"/>
</svg>
